    <svg width="900" height="845" viewBox="0 0 900 845" fill="none" xmlns="http://www.w3.org/2000/svg">
    <path d="M5.58423 521.082C27.6896 403.162 133.732 300.297 258.762 290.462C326.899 285.176 395.388 305.682 463.245 297.855C520.756 290.999 573.677 264.358 612.097 222.921C668.148 162.038 687.101 81.9082 746.445 23.9688C828.21 -55.9487 970.897 -57.1864 1070.39 1.58928C1169.88 60.365 1230.03 159.964 1257.57 268.517L1258.65 301.534C1264.64 414.135 1233.6 545.167 1165.19 645.524C1095.86 747.219 1050.28 789.369 923.953 862.329C816.685 924.416 606.632 951.713 481.216 954.59C355.801 957.467 226.988 921.807 132.646 842.793C38.3041 763.778 -16.5562 639.001 5.58423 521.082Z" fill="#CCE9DA"/>
    <path d="M414.331 193.407C410.787 170.068 427.706 148.402 452.12 145.014C476.535 141.626 499.2 157.799 502.744 181.137C506.288 204.476 489.37 226.142 464.955 229.53C440.541 232.918 417.876 216.745 414.331 193.407Z" fill="#CCE9DA"/>
    <path fill-rule="evenodd" clip-rule="evenodd" d="M745.373 253.332C745.925 251.206 746.772 249.159 747.891 247.247L744.41 242.172L751.719 234.957L757.138 238.104C759.105 236.978 761.219 236.106 763.426 235.511L764.726 229.571L775.226 229.404L776.734 235.3C778.959 235.83 781.101 236.638 783.104 237.705L788.417 234.38L795.959 241.351L792.664 246.538C793.85 248.411 794.768 250.427 795.39 252.534L801.609 253.786L801.772 263.761L795.611 265.19C795.061 267.317 794.214 269.363 793.093 271.275L796.574 276.35L789.264 283.565L783.846 280.418C781.88 281.547 779.765 282.423 777.558 283.022L776.305 289.018L765.863 289.184L764.354 283.288C762.128 282.764 759.985 281.955 757.985 280.883L752.671 284.208L745.129 277.226L748.424 272.039C747.238 270.167 746.321 268.15 745.698 266.044L739.49 264.802L739.316 254.761L745.477 253.332H745.373ZM759.226 259.017C759.263 261.145 759.96 263.215 761.228 264.965C762.497 266.714 764.28 268.065 766.352 268.847C768.424 269.629 770.693 269.806 772.87 269.357C775.048 268.907 777.037 267.851 778.587 266.321C780.136 264.792 781.176 262.858 781.574 260.764C781.973 258.67 781.713 256.51 780.826 254.558C779.94 252.605 778.468 250.947 776.595 249.794C774.723 248.641 772.534 248.044 770.306 248.079C768.826 248.1 767.365 248.401 766.007 248.962C764.649 249.524 763.42 250.336 762.391 251.352C761.361 252.368 760.552 253.568 760.009 254.884C759.466 256.199 759.2 257.604 759.226 259.017Z" fill="#EBEBEB"/>
    </svg>
